# xmcd CD database file
#
# Track frame offsets:
#	150
#	77667
#	99296
#	117798
#	133177
#
# Disc length: 2161 seconds
#
# Revision: 15
# Processed by: cddbd v1.5.2PL0 Copyright (c) Steve Scherf et al.
# Submitted via: CDex 1.51
#
DISCID=35086f05
DTITLE=Max Roach - Parisian sketches
DYEAR=2002
DGENRE=Jazz
TTITLE0=Parisian sketches The Tower The Champs The Caves The Left Bank The Arch
TTITLE1=Nika
TTITLE2=Petit déjeuner
TTITLE3=Un nouveau complet
TTITLE4=Liberté
EXTD=YEAR: 2002
EXTT0=
EXTT1=
EXTT2=
EXTT3=
EXTT4=
PLAYORDER=
